<svg width="59" height="16" viewBox="0 0 59 16" fill="none" xmlns="http://www.w3.org/2000/svg">
<path d="M54.8811 3.17432H50.8993V12.854H52.9865V10.1121H54.8811C57.422 10.1121 59.0007 8.77504 59.0007 6.63844C59.0007 4.50184 57.4225 3.17432 54.8811 3.17432ZM54.8364 8.50038H52.9865V4.78608H54.8364C56.1736 4.78608 56.9103 5.44558 56.9103 6.64323C56.9103 7.84087 56.1742 8.50038 54.8364 8.50038Z" fill="#515151"/>
<path d="M46.7726 4.78608L48.9577 3.17432H41.644V12.854H48.9577V11.2422H43.7312V8.76439H48.1891V7.15263H43.7312V4.78608H46.7726Z" fill="#515151"/>
<path d="M36.1186 6.9477H33.5788V4.78608H37.6334L39.8185 3.17432H31.4916V12.854H35.8494C38.2935 12.854 39.6956 11.7457 39.6956 9.813C39.6956 7.96543 38.4249 6.9477 36.1186 6.9477ZM35.7553 11.2422H33.5788V8.55893H35.7553C37.0803 8.55893 37.6973 9.00765 37.6973 9.90029C37.6967 10.8126 37.0436 11.2422 35.7553 11.2422Z" fill="#515151"/>
<path d="M27.9106 10.7586C27.3755 11.054 26.7521 11.2105 26.109 11.2105C24.2272 11.2105 22.8618 9.86644 22.8618 8.01462C22.8618 6.16279 24.2277 4.81877 26.109 4.81877C26.8207 4.81877 27.459 5.01891 28.0074 5.41333L29.5042 4.30937L29.4052 4.22261C28.5313 3.45399 27.3633 3.04785 26.0282 3.04785C24.5798 3.04785 23.265 3.53649 22.3267 4.42434C21.3826 5.31699 20.8629 6.57318 20.8629 7.96139C20.8629 9.35598 21.381 10.6308 22.3214 11.5506C23.265 12.4736 24.5766 12.9819 26.0149 12.9819C27.5196 12.9819 28.8334 12.4571 29.7238 11.5016C29.0366 10.9949 28.3733 10.5057 28.3733 10.5057L27.9106 10.7586Z" fill="#515151"/>
<path d="M8.05509 14.1519C7.95112 14.1519 7.84821 14.1492 7.74531 14.1439L7.65253 15.9894C7.78583 15.9958 7.92019 15.9995 8.05509 15.9995C10.2801 15.9995 12.2945 15.1043 13.7523 13.6563L12.4342 12.3477C11.3124 13.4615 9.76344 14.1519 8.05509 14.1519Z" fill="#515151"/>
<path d="M1.86085 8.00029C1.86085 7.89706 1.86352 7.79488 1.86885 7.69271L0.0101308 7.60059C0.00373249 7.73294 0 7.86635 0 8.00029C0 10.2095 0.901632 12.2096 2.35992 13.657L3.67797 12.3483C2.5556 11.2344 1.86085 9.69651 1.86085 8.00029Z" fill="#515151"/>
<path d="M8.0561 14.1526C6.23684 14.1526 4.59834 13.3701 3.4637 12.126L2.08167 13.3674C3.55595 14.9843 5.68659 16.0002 8.0561 16.0002V14.1526Z" fill="#515151"/>
<path d="M16.117 8C16.117 7.51083 16.0727 7.03171 15.988 6.56689L14.2535 7.83588C14.2551 7.89041 14.2556 7.94494 14.2556 8C14.2556 9.80633 13.4675 11.4332 12.2145 12.5598L13.4649 13.932C15.0938 12.4687 16.117 10.3532 16.117 8Z" fill="#515151"/>
<path d="M8.0554 1.84816C8.15937 1.84816 8.26228 1.85187 8.36518 1.85663L8.45796 0.0100589C8.32466 0.00370598 8.1903 0 8.0554 0C5.83038 0 3.81597 0.895227 2.35822 2.34316L3.67627 3.65185C4.79811 2.53798 6.34758 1.84816 8.0554 1.84816Z" fill="#515151"/>
<path d="M14.4329 3.10938C14.8136 3.59749 15.1389 4.1306 15.3985 4.69971L8.05698 10.0716L4.99005 8.16256V5.86599L8.05698 7.77504L14.4329 3.10938Z" fill="#515151"/>
<path d="M3.90192 3.44058L2.65158 2.06836C1.0232 3.53217 0 5.64768 0 8.00036H1.86138C1.86085 6.19403 2.64891 4.56716 3.90192 3.44058Z" fill="#515151"/>
<path d="M11.5492 2.9218L13.1163 1.7751C11.7332 0.665465 9.97311 0 8.05627 0V1.84816C9.3514 1.84816 10.5543 2.24469 11.5492 2.9218Z" fill="#515151"/>
</svg>
