<svg width="128" height="16" viewBox="0 0 128 16" fill="none" xmlns="http://www.w3.org/2000/svg">
<g clip-path="url(#clip0_2001_8867)">
<path d="M46.9491 4.78945L49.1408 3.18945H41.8067V12.8168H49.1408V11.2168H43.9017V8.7501H48.3724V7.15011H43.9017V4.7961L46.9491 4.78945Z" fill="#515151"/>
<path d="M36.2701 6.93945H33.7231V4.78945H37.7887L39.9804 3.18945H31.6308V12.8168H36.0014C38.4524 12.8168 39.8582 11.7141 39.8582 9.79211C39.8582 7.95211 38.584 6.93945 36.2701 6.93945ZM35.906 11.2114H33.7237V8.54478H35.906C37.2346 8.54478 37.8539 8.99145 37.8539 9.87811C37.8539 10.7841 37.1983 11.2114 35.9067 11.2114H35.906Z" fill="#515151"/>
<path d="M55.0831 3.18701H51.09V12.8144H53.183V10.087H55.0831C57.6315 10.087 59.214 8.75701 59.214 6.63234C59.214 4.50768 57.6315 3.18701 55.0831 3.18701ZM55.0381 8.48435H53.183V4.78967H55.0381C56.3815 4.78967 57.1204 5.44567 57.1204 6.637C57.1204 7.82834 56.3815 8.48435 55.0381 8.48435Z" fill="#515151"/>
<path d="M28.0386 10.7297C27.4841 11.028 26.8626 11.1826 26.2318 11.179C25.8057 11.1877 25.3822 11.1118 24.986 10.956C24.5898 10.8001 24.2289 10.5674 23.9245 10.2714C23.6201 9.97533 23.3783 9.62199 23.2132 9.23202C23.048 8.84206 22.963 8.42333 22.963 8.00033C22.963 7.57734 23.048 7.15859 23.2132 6.76862C23.3783 6.37866 23.6201 6.02532 23.9245 5.7293C24.2289 5.43327 24.5898 5.20052 24.986 5.04467C25.3822 4.88881 25.8057 4.813 26.2318 4.82166C26.9137 4.81198 27.5807 5.0192 28.1353 5.41299L29.6366 4.31499L29.5372 4.22832C28.5911 3.43947 27.3856 3.02373 26.1506 3.06033C24.7825 3.02868 23.4542 3.51848 22.4389 4.429C21.9639 4.88393 21.5884 5.43105 21.3358 6.0363C21.0832 6.64156 20.9588 7.29196 20.9705 7.94699C20.9605 8.60904 21.0849 9.26631 21.3363 9.87965C21.5876 10.493 21.9607 11.0498 22.4335 11.517C23.432 12.4555 24.7622 12.9667 26.1371 12.9403C26.8264 12.9636 27.5131 12.8446 28.1537 12.591C28.7943 12.3374 29.3749 11.9547 29.8589 11.467L28.5041 10.4763L28.0386 10.7297Z" fill="#515151"/>
<path d="M8.05688 14.1524C7.95289 14.1524 7.84996 14.1497 7.74703 14.1444L7.65424 15.99C7.78756 15.9963 7.92196 16 8.05688 16C10.2824 16 12.2972 15.1048 13.7552 13.6568L12.4369 12.3481C11.3148 13.462 9.76559 14.1524 8.05688 14.1524Z" fill="#515151"/>
<path d="M1.86148 8.00078C1.86148 7.89755 1.86414 7.79537 1.86948 7.69319L0.0103771 7.60107C0.0039774 7.73343 0.000244141 7.86684 0.000244141 8.00078C0.000244141 10.21 0.902063 12.2101 2.36065 13.6575L3.67898 12.3488C2.55637 11.2349 1.86148 9.69701 1.86148 8.00078Z" fill="#515151"/>
<path d="M8.05789 14.1526C6.23825 14.1526 4.59941 13.3701 3.46454 12.126L2.08221 13.3674C3.5568 14.9843 5.68788 16.0002 8.05789 16.0002V14.1526Z" fill="#515151"/>
<path d="M16.1207 8.00049C16.1207 7.51132 16.0765 7.0322 15.9917 6.56738L14.2568 7.83638C14.2584 7.89091 14.259 7.94544 14.259 8.00049C14.259 9.80684 13.4707 11.4337 12.2175 12.5603L13.4681 13.9325C15.0973 12.4692 16.1207 10.3537 16.1207 8.00049Z" fill="#515151"/>
<path d="M8.05737 1.84866C8.16137 1.84866 8.26429 1.85237 8.36722 1.85713L8.46002 0.0105472C8.32669 0.00419429 8.1923 0.000488281 8.05737 0.000488281C5.83189 0.000488281 3.81706 0.895721 2.35901 2.34366L3.67734 3.65236C4.79941 2.53848 6.3492 1.84866 8.05737 1.84866Z" fill="#515151"/>
<path d="M14.4362 3.10986C14.817 3.59798 15.1423 4.13109 15.402 4.70021L8.05896 10.0721L4.99139 8.16308V5.8665L8.05896 7.77555L14.4362 3.10986Z" fill="#515151"/>
<path d="M3.90297 3.44059L2.65237 2.06836C1.02366 3.53218 0.000244141 5.6477 0.000244141 8.0004H1.86201C1.86148 6.19405 2.6497 4.56717 3.90297 3.44059Z" fill="#515151"/>
<path d="M11.5517 2.92231L13.1191 1.7756C11.7357 0.665958 9.97528 0.000488281 8.05804 0.000488281V1.84866C9.35344 1.84866 10.5566 2.24519 11.5517 2.92231Z" fill="#515151"/>
<path d="M72.9754 5.58008L69.8574 10.6967H68.9843L65.7978 5.65074V12.8167H64.0656V3.18408H66.2552L69.4698 8.42407L72.657 3.18408H74.7076V12.8114H72.9754V5.58008Z" fill="#515151"/>
<path d="M81.7327 3.03809C84.8507 3.05209 86.9288 4.90876 86.9288 8.01676C86.9288 10.9188 84.8916 12.9681 81.7327 12.9681C78.6148 12.9681 76.5359 11.1114 76.5359 7.98877C76.5359 5.0841 78.5731 3.03809 81.7327 3.03809ZM81.7468 11.3868C82.4223 11.3923 83.0843 11.1986 83.6487 10.8301C84.2131 10.4616 84.6544 9.93499 84.9168 9.31712C85.1792 8.69924 85.2507 8.01794 85.1223 7.35966C84.9939 6.70138 84.6713 6.09579 84.1956 5.61975C83.7199 5.14371 83.1124 4.81868 82.4502 4.68589C81.7881 4.55311 81.1011 4.61858 80.4764 4.87396C79.8518 5.12935 79.3177 5.56315 78.9419 6.12032C78.5661 6.67749 78.3654 7.33291 78.3655 8.00342C78.3309 8.45394 78.3945 8.90658 78.5517 9.33059C78.709 9.75459 78.9564 10.14 79.2771 10.4607C79.5978 10.7813 79.9843 11.0297 80.4103 11.1889C80.8364 11.3482 81.292 11.4145 81.7462 11.3834L81.7468 11.3868Z" fill="#515151"/>
<path d="M88.7438 3.18408H95.6305V4.7654H90.4754V6.48474H92.3735C95.034 6.48474 96.3922 7.47474 96.3922 9.5934C96.3922 11.7121 94.8123 12.8121 92.3318 12.8121H88.7424L88.7438 3.18408ZM90.476 8.06673V11.2301H92.3191C93.7048 11.2301 94.5914 10.8301 94.5914 9.55208C94.5914 8.39675 93.8156 8.06673 92.3191 8.06673H90.476Z" fill="#515151"/>
<path d="M103.03 3.18408L107.021 12.8114H105.178L104.25 10.5281H99.8015L98.8868 12.8114H97.127L101.062 3.18408H103.03ZM100.426 8.94674H103.613L102.019 4.99941L100.426 8.94674Z" fill="#515151"/>
<path d="M110.125 10.38L115.418 3.18673H117.303V12.814H115.571V5.51339L110.25 12.8167H108.393V3.18673H110.125L110.125 10.38ZM115.626 0.713379C115.473 2.06138 114.434 2.7214 112.854 2.7214C111.303 2.7214 110.111 2.33605 109.945 0.713379H111.579C111.663 1.20871 112.037 1.51339 112.827 1.51339C113.645 1.51339 113.949 1.19738 114.018 0.713379H115.626Z" fill="#515151"/>
<path d="M126.268 4.7679H122.58L122.552 5.2219C122.164 12.2219 120.931 12.9379 119.517 12.9379C119.252 12.9479 118.987 12.901 118.742 12.8006V11.0672C118.875 11.1149 119.016 11.1375 119.157 11.1339C119.822 11.1339 120.612 10.7212 120.889 5.17857L120.986 3.18457H127.998V12.8119H126.266L126.268 4.7679Z" fill="#515151"/>
</g>
<defs>
<clipPath id="clip0_2001_8867">
<rect width="128" height="16" fill="white"/>
</clipPath>
</defs>
</svg>
