<svg width="20" height="20" viewBox="0 0 20 20" fill="none" xmlns="http://www.w3.org/2000/svg">
<g clip-path="url(#clip0_2001_8868)">
<path fill-rule="evenodd" clip-rule="evenodd" d="M10.4224 20H9.5896C5.068 20 2.808 20 1.404 18.596C0 17.192 0 14.932 0 10.4224V9.5776C0 5.0672 0 2.808 1.404 1.404C2.808 3.97364e-06 5.068 0 9.5896 0H10.4224C14.9432 0 17.216 3.97364e-06 18.608 1.404C20 2.808 20 5.0688 20 9.57759L20 10.5361C20.0001 14.9701 20.0001 17.2038 18.608 18.596C17.204 20 14.9432 20 10.4224 20ZM3.37931 6.09172C3.48571 11.2909 6.22251 14.4197 10.7321 14.4197H10.9937V11.4453C12.6353 11.6117 13.8609 12.8373 14.3609 14.4197H16.7281C16.0857 12.0525 14.4201 10.7437 13.3849 10.2437C14.4201 9.62531 15.8833 8.12611 16.2281 6.09172H14.0753C13.6225 7.74532 12.2785 9.24451 10.9937 9.38692V6.09172H8.80411V11.8621C7.47211 11.5317 5.73451 9.91091 5.66331 6.09172H3.37931Z" fill="#515151"/>
</g>
<defs>
<clipPath id="clip0_2001_8868">
<rect width="20" height="20" fill="white"/>
</clipPath>
</defs>
</svg>
